<svg width="34" height="34" viewBox="0 0 34 34" fill="none" xmlns="http://www.w3.org/2000/svg">
<path d="M16.6667 33.3333C14.3611 33.3333 12.1944 32.8958 10.1667 32.0208C8.13889 31.1458 6.375 29.9583 4.875 28.4583C3.375 26.9583 2.1875 25.1944 1.3125 23.1667C0.4375 21.1389 0 18.9722 0 16.6667C0 14.3611 0.4375 12.1944 1.3125 10.1667C2.1875 8.13889 3.375 6.375 4.875 4.875C6.375 3.375 8.13889 2.1875 10.1667 1.3125C12.1944 0.4375 14.3611 0 16.6667 0H18.3333V13.7917C18.8333 14.0972 19.2361 14.4931 19.5417 14.9792C19.8472 15.4653 20 16.0278 20 16.6667C20 17.5833 19.6736 18.3681 19.0208 19.0208C18.3681 19.6736 17.5833 20 16.6667 20C15.75 20 14.9653 19.6736 14.3125 19.0208C13.6597 18.3681 13.3333 17.5833 13.3333 16.6667C13.3333 16.0278 13.4861 15.4583 13.7917 14.9583C14.0972 14.4583 14.5 14.0694 15 13.7917V10.2083C13.5556 10.5972 12.3611 11.3819 11.4167 12.5625C10.4722 13.7431 10 15.1111 10 16.6667C10 18.5 10.6528 20.0694 11.9583 21.375C13.2639 22.6806 14.8333 23.3333 16.6667 23.3333C18.5 23.3333 20.0694 22.6806 21.375 21.375C22.6806 20.0694 23.3333 18.5 23.3333 16.6667C23.3333 15.6667 23.1319 14.7431 22.7292 13.8958C22.3264 13.0486 21.7778 12.3056 21.0833 11.6667L23.4583 9.29167C24.4306 10.2083 25.2083 11.2986 25.7917 12.5625C26.375 13.8264 26.6667 15.1944 26.6667 16.6667C26.6667 19.4444 25.6944 21.8056 23.75 23.75C21.8056 25.6944 19.4444 26.6667 16.6667 26.6667C13.8889 26.6667 11.5278 25.6944 9.58333 23.75C7.63889 21.8056 6.66667 19.4444 6.66667 16.6667C6.66667 14.1667 7.45833 11.9931 9.04167 10.1458C10.625 8.29861 12.6111 7.18056 15 6.79167V3.41667C11.6944 3.83333 8.92361 5.29167 6.6875 7.79167C4.45139 10.2917 3.33333 13.25 3.33333 16.6667C3.33333 20.3889 4.625 23.5417 7.20833 26.125C9.79167 28.7083 12.9444 30 16.6667 30C20.3889 30 23.5417 28.7083 26.125 26.125C28.7083 23.5417 30 20.3889 30 16.6667C30 14.75 29.625 12.9583 28.875 11.2917C28.125 9.625 27.0972 8.18056 25.7917 6.95833L28.1667 4.58333C29.75 6.11111 31.0069 7.90972 31.9375 9.97917C32.8681 12.0486 33.3333 14.2778 33.3333 16.6667C33.3333 18.9722 32.8958 21.1389 32.0208 23.1667C31.1458 25.1944 29.9583 26.9583 28.4583 28.4583C26.9583 29.9583 25.1944 31.1458 23.1667 32.0208C21.1389 32.8958 18.9722 33.3333 16.6667 33.3333V33.3333" fill="#A33800"/>
</svg>
