<svg width="19" height="45" viewBox="0 0 19 45" fill="none" xmlns="http://www.w3.org/2000/svg">
<path d="M7.5 11.25C7.7125 11.25 7.89062 11.1781 8.03437 11.0344C8.17812 10.8906 8.25 10.7125 8.25 10.5C8.25 10.2875 8.17812 10.1094 8.03437 9.96563C7.89062 9.82188 7.7125 9.75 7.5 9.75C7.2875 9.75 7.10937 9.82188 6.96562 9.96563C6.82187 10.1094 6.75 10.2875 6.75 10.5C6.75 10.7125 6.82187 10.8906 6.96562 11.0344C7.10937 11.1781 7.2875 11.25 7.5 11.25V11.25M6.75 8.25H8.25V3.75H6.75V8.25V8.25M7.5 15C6.4625 15 5.4875 14.8031 4.575 14.4094C3.6625 14.0156 2.86875 13.4812 2.19375 12.8062C1.51875 12.1313 0.984375 11.3375 0.590625 10.425C0.196875 9.5125 0 8.5375 0 7.5C0 6.4625 0.196875 5.4875 0.590625 4.575C0.984375 3.6625 1.51875 2.86875 2.19375 2.19375C2.86875 1.51875 3.6625 0.984375 4.575 0.590625C5.4875 0.196875 6.4625 0 7.5 0C8.5375 0 9.5125 0.196875 10.425 0.590625C11.3375 0.984375 12.1313 1.51875 12.8062 2.19375C13.4812 2.86875 14.0156 3.6625 14.4094 4.575C14.8031 5.4875 15 6.4625 15 7.5C15 8.5375 14.8031 9.5125 14.4094 10.425C14.0156 11.3375 13.4812 12.1313 12.8062 12.8062C12.1313 13.4812 11.3375 14.0156 10.425 14.4094C9.5125 14.8031 8.5375 15 7.5 15V15" fill="#BA1A1A"/>
<path d="M6.45 37.95L11.7375 32.6625L10.6875 31.6125L6.45 35.85L4.3125 33.7125L3.2625 34.7625L6.45 37.95V37.95M7.5 42C6.4625 42 5.4875 41.8031 4.575 41.4094C3.6625 41.0156 2.86875 40.4812 2.19375 39.8062C1.51875 39.1313 0.984375 38.3375 0.590625 37.425C0.196875 36.5125 0 35.5375 0 34.5C0 33.4625 0.196875 32.4875 0.590625 31.575C0.984375 30.6625 1.51875 29.8687 2.19375 29.1937C2.86875 28.5187 3.6625 27.9844 4.575 27.5906C5.4875 27.1969 6.4625 27 7.5 27C8.5375 27 9.5125 27.1969 10.425 27.5906C11.3375 27.9844 12.1313 28.5187 12.8062 29.1937C13.4812 29.8687 14.0156 30.6625 14.4094 31.575C14.8031 32.4875 15 33.4625 15 34.5C15 35.5375 14.8031 36.5125 14.4094 37.425C14.0156 38.3375 13.4812 39.1313 12.8062 39.8062C12.1313 40.4812 11.3375 41.0156 10.425 41.4094C9.5125 41.8031 8.5375 42 7.5 42V42" fill="#166534"/>
</svg>
